<mxfile host="app.diagrams.net" modified="2023-12-17T10:56:14.265Z" agent="Mozilla/5.0 (Windows NT 10.0; Win64; x64) AppleWebKit/537.36 (KHTML, like Gecko) Chrome/119.0.0.0 Safari/537.36 OPR/105.0.0.0" version="22.1.11" etag="ozEKyFJNTP5tORl41izt" type="github">
  <diagram name="Page-1" id="bb25z_C_7zxEAGs7d8ph">
    <mxGraphModel>
      <root>
        <mxCell id="0" />
        <mxCell id="1" parent="0" />
      </root>
    </mxGraphModel>
  </diagram>
</mxfile>
